<svg width="14" height="14" viewBox="0 0 14 14" fill="none" xmlns="http://www.w3.org/2000/svg">
<path d="M3.99998 12.9999H2.19999C1.88173 12.9999 1.57651 12.8735 1.35147 12.6485C1.12643 12.4234 1 12.1182 1 11.7999V7.59996C1 7.2817 1.12643 6.97648 1.35147 6.75144C1.57651 6.52639 1.88173 6.39997 2.19999 6.39997H3.99998M8.19995 5.19997V2.79999C8.19995 2.3226 8.01031 1.86477 7.67275 1.5272C7.33519 1.18964 6.87735 1 6.39997 1L3.99998 6.39997V12.9999H10.7679C11.0573 13.0032 11.3382 12.9018 11.5587 12.7143C11.7792 12.5269 11.9245 12.2661 11.9679 11.9799L12.7959 6.57996C12.822 6.40798 12.8104 6.23238 12.7619 6.06532C12.7134 5.89826 12.6292 5.74375 12.515 5.61248C12.4009 5.48121 12.2596 5.37633 12.1009 5.3051C11.9422 5.23388 11.7699 5.198 11.5959 5.19997H8.19995Z" stroke="#2EC971" stroke-linecap="round" stroke-linejoin="round"/>
</svg>
